<mxfile host="Electron" agent="Mozilla/5.0 (Windows NT 10.0; Win64; x64) AppleWebKit/537.36 (KHTML, like Gecko) draw.io/24.7.17 Chrome/128.0.6613.36 Electron/32.0.1 Safari/537.36" version="24.7.17">
  <diagram name="Página-1" id="4n3aRMci7fg3j79IuOeR">
    <mxGraphModel dx="1050" dy="629" grid="1" gridSize="10" guides="1" tooltips="1" connect="1" arrows="1" fold="1" page="1" pageScale="1" pageWidth="827" pageHeight="1169" math="0" shadow="0">
      <root>
        <mxCell id="0" />
        <mxCell id="1" parent="0" />
        <mxCell id="-L4p2Ijl5HO52Cy-FOMr-1" value="Dado un director &lt;b&gt;dirige&lt;/b&gt; (relación) como mínimo 1 y como máximo 1" style="text;html=1;align=left;verticalAlign=middle;whiteSpace=wrap;rounded=0;" vertex="1" parent="1">
          <mxGeometry x="60" y="90" width="190" height="40" as="geometry" />
        </mxCell>
        <mxCell id="-L4p2Ijl5HO52Cy-FOMr-2" value="DIRECTORES" style="whiteSpace=wrap;html=1;align=center;" vertex="1" parent="1">
          <mxGeometry x="60" y="40" width="100" height="40" as="geometry" />
        </mxCell>
        <mxCell id="-L4p2Ijl5HO52Cy-FOMr-3" value="CENTROS" style="whiteSpace=wrap;html=1;align=center;" vertex="1" parent="1">
          <mxGeometry x="400" y="40" width="90" height="40" as="geometry" />
        </mxCell>
        <mxCell id="-L4p2Ijl5HO52Cy-FOMr-5" value="1, 1" style="edgeStyle=orthogonalEdgeStyle;rounded=0;orthogonalLoop=1;jettySize=auto;html=1;exitX=0;exitY=0.5;exitDx=0;exitDy=0;entryX=1;entryY=0.5;entryDx=0;entryDy=0;endArrow=none;endFill=0;verticalAlign=bottom;" edge="1" parent="1" source="-L4p2Ijl5HO52Cy-FOMr-4" target="-L4p2Ijl5HO52Cy-FOMr-2">
          <mxGeometry relative="1" as="geometry" />
        </mxCell>
        <mxCell id="-L4p2Ijl5HO52Cy-FOMr-6" value="1, 1" style="edgeStyle=orthogonalEdgeStyle;shape=connector;rounded=0;orthogonalLoop=1;jettySize=auto;html=1;exitX=1;exitY=0.5;exitDx=0;exitDy=0;entryX=0;entryY=0.5;entryDx=0;entryDy=0;strokeColor=default;align=center;verticalAlign=bottom;fontFamily=Helvetica;fontSize=11;fontColor=default;labelBackgroundColor=default;endArrow=none;endFill=0;" edge="1" parent="1" source="-L4p2Ijl5HO52Cy-FOMr-4" target="-L4p2Ijl5HO52Cy-FOMr-3">
          <mxGeometry relative="1" as="geometry" />
        </mxCell>
        <mxCell id="-L4p2Ijl5HO52Cy-FOMr-4" value="Dirigir" style="shape=rhombus;perimeter=rhombusPerimeter;whiteSpace=wrap;html=1;align=center;" vertex="1" parent="1">
          <mxGeometry x="220" y="30" width="120" height="60" as="geometry" />
        </mxCell>
        <mxCell id="-L4p2Ijl5HO52Cy-FOMr-7" value="1 : 1" style="text;html=1;align=center;verticalAlign=middle;whiteSpace=wrap;rounded=0;fontFamily=Helvetica;fontSize=11;fontColor=default;labelBackgroundColor=default;fontStyle=1" vertex="1" parent="1">
          <mxGeometry x="250" width="60" height="30" as="geometry" />
        </mxCell>
      </root>
    </mxGraphModel>
  </diagram>
</mxfile>
